<?xml version="1.0" standalone="no"?>
<!DOCTYPE svg PUBLIC "-//W3C//DTD SVG 20010904//EN"
 "http://www.w3.org/TR/2001/REC-SVG-20010904/DTD/svg10.dtd">
<svg version="1.0" xmlns="http://www.w3.org/2000/svg"
 width="300.000000pt" height="300.000000pt" viewBox="0 0 300.000000 300.000000"
 preserveAspectRatio="xMidYMid meet">
<metadata>
Created by potrace 1.14, written by Peter Selinger 2001-2017
</metadata>
<g transform="translate(0.000000,300.000000) scale(0.100000,-0.100000)"
fill="#000000" stroke="none">
<path d="M1369 2500 c-52 -9 -117 -50 -175 -112 -111 -118 -154 -303 -93 -406
l19 -34 -50 -55 c-95 -104 -193 -256 -286 -443 -65 -132 -79 -183 -79 -285 0
-167 59 -287 185 -373 76 -52 83 -74 25 -83 -60 -8 -100 -34 -137 -86 -26 -39
-33 -60 -36 -111 -5 -74 8 -111 54 -151 28 -25 34 -38 39 -88 7 -63 -15 -195
-41 -245 -13 -24 -13 -28 0 -28 8 0 18 9 21 20 8 27 45 27 45 0 0 -19 7 -20
94 -20 l95 0 -2 88 c-2 92 14 147 43 147 22 0 50 -64 50 -115 0 -25 3 -62 6
-83 l7 -37 468 0 468 0 7 45 c3 25 4 54 1 65 -10 38 3 20 32 -45 l30 -65 116
0 116 0 -27 48 c-15 26 -31 52 -35 57 -11 16 -59 154 -70 203 -9 43 -8 47 20
76 88 90 82 235 -12 334 -40 41 -121 82 -164 82 -18 0 -33 3 -33 6 0 4 14 22
31 42 73 83 104 197 96 347 -10 168 -69 329 -188 510 -76 115 -265 300 -352
345 -66 34 -68 36 -60 65 4 17 8 78 8 136 0 100 -2 108 -30 154 -46 74 -122
109 -206 95z m-51 -97 c-3 -19 -55 -36 -64 -22 -9 16 16 39 43 39 18 0 24 -5
21 -17z m-73 -43 c3 -6 -17 -32 -44 -59 -50 -48 -66 -91 -41 -106 15 -9 12
-78 -4 -101 -24 -31 -41 -3 -40 64 1 70 35 153 76 187 32 27 44 30 53 15z
m-32 -121 c-7 -7 -20 -8 -30 -5 -17 7 -17 8 1 22 23 17 48 2 29 -17z m127 -29
c0 -5 -7 -10 -16 -10 -8 0 -12 5 -9 10 3 6 10 10 16 10 5 0 9 -4 9 -10z m273
-186 c18 -9 34 -18 35 -19 2 -2 -6 -17 -19 -34 l-22 -30 -41 21 c-54 27 -53
24 -26 53 28 30 31 30 73 9z m-587 -239 c-107 -163 -188 -348 -217 -495 -17
-87 -7 -215 21 -270 13 -27 68 -89 133 -152 61 -59 108 -110 104 -114 -4 -4
-44 11 -89 34 -104 51 -171 115 -212 202 -28 59 -31 74 -30 165 1 117 17 172
99 336 58 114 107 196 163 272 38 50 55 64 28 22z m524 -26 c68 -15 110 -56
110 -110 0 -67 -36 -81 -306 -119 -185 -27 -273 -24 -308 9 -28 26 -51 84 -42
106 19 50 170 99 351 113 61 5 118 10 127 11 9 0 40 -4 68 -10z m-76 -575 c10
-73 7 -131 -6 -142 -7 -5 -29 -12 -48 -14 l-35 -3 -3 97 c-3 105 -3 104 59
107 24 1 27 -3 33 -45z m-104 -64 c0 -99 0 -101 -21 -90 -45 25 -71 173 -31
183 52 14 52 14 52 -93z m-348 -439 c15 -90 114 -150 280 -171 139 -18 372 5
483 46 51 18 104 45 110 54 3 5 15 15 26 20 16 9 19 7 19 -14 0 -29 -38 -54
-137 -89 -114 -41 -195 -52 -378 -51 -228 0 -331 26 -413 102 -36 34 -47 68
-38 118 10 51 38 42 48 -15z m-158 -13 c-4 -7 -21 -33 -38 -57 -27 -37 -31
-52 -31 -105 0 -33 4 -74 8 -91 l9 -30 -21 25 c-58 70 -47 155 27 227 44 44
59 53 46 31z m252 -322 c3 -14 3 -30 -1 -35 -16 -27 -75 5 -75 41 0 14 8 18
35 18 28 0 36 -4 41 -24z m-249 -83 c-3 -10 -5 -4 -5 12 0 17 2 24 5 18 2 -7
2 -21 0 -30z m0 -55 c-3 -8 -6 -5 -6 6 -1 11 2 17 5 13 3 -3 4 -12 1 -19z m30
-36 c-22 -3 -27 -7 -22 -22 10 -33 -5 -90 -24 -90 -16 0 -16 6 -8 53 5 28 11
57 12 63 2 7 16 9 37 5 32 -5 32 -6 5 -9z"/>
<path d="M960 820 c0 -11 7 -20 15 -20 8 0 15 9 15 20 0 11 -7 20 -15 20 -8 0
-15 -9 -15 -20z"/>
</g>
</svg>
